<svg xmlns="http://www.w3.org/2000/svg" xmlns:xlink="http://www.w3.org/1999/xlink" width="500" zoomAndPan="magnify" viewBox="0 0 375 374.999991" height="500" preserveAspectRatio="xMidYMid meet" version="1.0"><defs><g/><clipPath id="b6704ad95f"><path d="M 83 205 L 197 205 L 197 226 L 83 226 Z M 83 205 " clip-rule="nonzero"/></clipPath><clipPath id="02c456a971"><path d="M 82.449219 215.671875 L 196.371094 201.90625 L 197.992188 215.308594 L 84.070312 229.074219 Z M 82.449219 215.671875 " clip-rule="nonzero"/></clipPath><clipPath id="6836b05f22"><path d="M 82.449219 215.671875 L 196.371094 201.90625 L 197.992188 215.308594 L 84.070312 229.074219 Z M 82.449219 215.671875 " clip-rule="nonzero"/></clipPath><clipPath id="71f9fe52e9"><path d="M 82.449219 215.671875 L 196.371094 201.90625 L 197.992188 215.308594 L 84.070312 229.074219 Z M 82.449219 215.671875 " clip-rule="nonzero"/></clipPath></defs><g fill="#000000" fill-opacity="1"><g transform="translate(65.17248, 211.233655)"><g><path d="M 13.515625 -1.546875 C 12.117188 -1.390625 10.734375 -1.671875 9.359375 -2.390625 C 7.984375 -3.117188 6.78125 -4.375 5.75 -6.15625 C 4.71875 -7.945312 4.023438 -10.382812 3.671875 -13.46875 C 3.285156 -16.800781 3.550781 -20.972656 4.46875 -25.984375 C 5.382812 -30.992188 7.253906 -36.976562 10.078125 -43.9375 C 7.878906 -44.332031 5.875 -44.21875 4.0625 -43.59375 C 2.25 -42.976562 0.851562 -42.050781 -0.125 -40.8125 C -1.101562 -39.570312 -1.503906 -38.179688 -1.328125 -36.640625 C -1.203125 -35.628906 -0.835938 -34.800781 -0.234375 -34.15625 C 0.367188 -33.507812 1.0625 -33.234375 1.84375 -33.328125 C 2.25 -32.597656 2.375 -31.671875 2.21875 -30.546875 C 2.0625 -29.429688 1.613281 -28.332031 0.875 -27.25 C 0.144531 -26.164062 -0.835938 -25.207031 -2.078125 -24.375 C -3.328125 -23.550781 -4.820312 -23.039062 -6.5625 -22.84375 C -8.539062 -22.625 -10.257812 -22.929688 -11.71875 -23.765625 C -13.1875 -24.597656 -14.351562 -25.789062 -15.21875 -27.34375 C -16.082031 -28.90625 -16.617188 -30.609375 -16.828125 -32.453125 C -17.140625 -35.148438 -16.789062 -37.765625 -15.78125 -40.296875 C -14.769531 -42.828125 -13.203125 -45.15625 -11.078125 -47.28125 C -8.953125 -49.414062 -6.367188 -51.179688 -3.328125 -52.578125 C -0.296875 -53.972656 3.125 -54.890625 6.9375 -55.328125 C 10.457031 -55.722656 13.039062 -55.535156 14.6875 -54.765625 C 16.34375 -54.003906 17.367188 -52.738281 17.765625 -50.96875 C 18.160156 -49.207031 18.210938 -47.070312 17.921875 -44.5625 C 17.148438 -37.976562 16.597656 -32.804688 16.265625 -29.046875 C 15.941406 -25.296875 15.953125 -22.679688 16.296875 -21.203125 C 16.640625 -19.734375 17.4375 -19.070312 18.6875 -19.21875 C 20.050781 -19.375 21.175781 -20.757812 22.0625 -23.375 C 22.957031 -26 23.859375 -30.1875 24.765625 -35.9375 C 25.285156 -39.132812 25.679688 -41.976562 25.953125 -44.46875 C 26.234375 -46.96875 26.566406 -49.09375 26.953125 -50.84375 C 27.335938 -52.601562 27.9375 -53.984375 28.75 -54.984375 C 29.5625 -55.984375 30.765625 -56.570312 32.359375 -56.75 C 33.953125 -56.9375 35.4375 -56.644531 36.8125 -55.875 C 38.195312 -55.101562 38.992188 -53.820312 39.203125 -52.03125 C 39.390625 -50.34375 39.164062 -48.625 38.53125 -46.875 C 37.90625 -45.125 37.210938 -43.285156 36.453125 -41.359375 C 35.703125 -39.441406 35.210938 -37.347656 34.984375 -35.078125 C 34.578125 -30.140625 34.710938 -26.597656 35.390625 -24.453125 C 36.078125 -22.304688 36.832031 -21.28125 37.65625 -21.375 C 38.613281 -21.488281 39.363281 -22.148438 39.90625 -23.359375 C 40.457031 -24.578125 40.929688 -26.1875 41.328125 -28.1875 C 41.734375 -30.1875 42.175781 -32.363281 42.65625 -34.71875 C 44.445312 -44.195312 46.96875 -51.160156 50.21875 -55.609375 C 53.46875 -60.054688 57.429688 -62.550781 62.109375 -63.09375 C 64.816406 -63.394531 67.015625 -63.09375 68.703125 -62.1875 C 70.390625 -61.289062 71.59375 -60.0625 72.3125 -58.5 C 73.03125 -56.9375 73.242188 -55.304688 72.953125 -53.609375 C 72.660156 -51.921875 71.898438 -50.457031 70.671875 -49.21875 C 69.441406 -47.988281 67.71875 -47.25 65.5 -47 C 64.300781 -46.863281 63.394531 -46.878906 62.78125 -47.046875 C 62.175781 -47.210938 61.640625 -47.390625 61.171875 -47.578125 C 60.710938 -47.773438 60.070312 -47.828125 59.25 -47.734375 C 57.226562 -47.503906 55.671875 -46.582031 54.578125 -44.96875 C 53.492188 -43.363281 52.703125 -41.320312 52.203125 -38.84375 C 51.710938 -36.363281 51.328125 -33.65625 51.046875 -30.71875 C 50.773438 -27.78125 50.46875 -24.828125 50.125 -21.859375 C 49.78125 -18.890625 49.210938 -16.144531 48.421875 -13.625 C 47.640625 -11.113281 46.460938 -9.023438 44.890625 -7.359375 C 43.316406 -5.691406 41.179688 -4.707031 38.484375 -4.40625 C 36.847656 -4.21875 35.273438 -4.488281 33.765625 -5.21875 C 32.265625 -5.945312 31.054688 -7.34375 30.140625 -9.40625 C 29.222656 -11.476562 28.84375 -14.378906 29 -18.109375 C 29.039062 -19.046875 28.863281 -19.648438 28.46875 -19.921875 C 28.070312 -20.191406 27.617188 -20.148438 27.109375 -19.796875 C 26.609375 -19.453125 26.269531 -18.78125 26.09375 -17.78125 C 25.414062 -13.894531 24.378906 -10.796875 22.984375 -8.484375 C 21.585938 -6.179688 20.054688 -4.492188 18.390625 -3.421875 C 16.734375 -2.347656 15.109375 -1.722656 13.515625 -1.546875 Z M 13.515625 -1.546875 "/></g></g></g><g fill="#000000" fill-opacity="1"><g transform="translate(120.865701, 204.867625)"><g><path d="M 7.671875 -0.875 C 5.203125 -0.59375 3.226562 -1.390625 1.75 -3.265625 C 0.269531 -5.148438 -0.65625 -7.710938 -1.03125 -10.953125 C -1.257812 -12.972656 -1.25 -15.15625 -1 -17.5 C -0.757812 -19.851562 -0.273438 -22.195312 0.453125 -24.53125 C 1.191406 -26.863281 2.203125 -29.015625 3.484375 -30.984375 C 4.773438 -32.960938 6.347656 -34.609375 8.203125 -35.921875 C 10.054688 -37.242188 12.234375 -38.046875 14.734375 -38.328125 C 16.179688 -38.492188 17.316406 -38.488281 18.140625 -38.3125 C 18.972656 -38.132812 19.617188 -37.875 20.078125 -37.53125 C 20.535156 -37.195312 20.921875 -36.914062 21.234375 -36.6875 C 21.554688 -36.457031 21.960938 -36.367188 22.453125 -36.421875 C 23.273438 -36.515625 23.910156 -36.816406 24.359375 -37.328125 C 24.816406 -37.847656 25.328125 -38.375 25.890625 -38.90625 C 26.460938 -39.4375 27.300781 -39.765625 28.40625 -39.890625 C 29.375 -40.003906 30.066406 -39.84375 30.484375 -39.40625 C 30.898438 -38.96875 31.15625 -38.335938 31.25 -37.515625 C 31.40625 -36.160156 31.1875 -34.773438 30.59375 -33.359375 C 30 -31.953125 29.410156 -30.140625 28.828125 -27.921875 C 27.929688 -25.128906 27.71875 -23.050781 28.1875 -21.6875 C 28.664062 -20.320312 29.695312 -19.726562 31.28125 -19.90625 C 32.53125 -20.050781 33.578125 -20.5 34.421875 -21.25 C 35.273438 -22.007812 35.992188 -23.015625 36.578125 -24.265625 C 36.910156 -24.878906 37.382812 -25.140625 38 -25.046875 C 38.613281 -24.953125 39.148438 -24.6875 39.609375 -24.25 C 40.078125 -23.8125 40.21875 -23.332031 40.03125 -22.8125 C 39.363281 -21.03125 38.648438 -19.054688 37.890625 -16.890625 C 37.140625 -14.734375 36.269531 -12.644531 35.28125 -10.625 C 34.289062 -8.601562 33.09375 -6.890625 31.6875 -5.484375 C 30.289062 -4.078125 28.578125 -3.257812 26.546875 -3.03125 C 24.046875 -2.75 22.160156 -3.554688 20.890625 -5.453125 C 19.628906 -7.359375 19.039062 -9.835938 19.125 -12.890625 L 18.84375 -12.859375 C 17.726562 -9.742188 16.222656 -7.039062 14.328125 -4.75 C 12.441406 -2.457031 10.222656 -1.164062 7.671875 -0.875 Z M 13.1875 -16.6875 C 14.4375 -16.832031 15.492188 -17.316406 16.359375 -18.140625 C 17.222656 -18.960938 17.859375 -19.925781 18.265625 -21.03125 C 18.671875 -22.132812 18.816406 -23.191406 18.703125 -24.203125 C 18.566406 -25.398438 18.125 -26.296875 17.375 -26.890625 C 16.625 -27.492188 15.671875 -27.734375 14.515625 -27.609375 C 13.265625 -27.460938 12.21875 -27 11.375 -26.21875 C 10.539062 -25.4375 9.925781 -24.5 9.53125 -23.40625 C 9.132812 -22.3125 9 -21.234375 9.125 -20.171875 C 9.257812 -18.972656 9.691406 -18.0625 10.421875 -17.4375 C 11.148438 -16.8125 12.070312 -16.5625 13.1875 -16.6875 Z M 13.1875 -16.6875 "/></g></g></g><g fill="#000000" fill-opacity="1"><g transform="translate(158.042732, 200.618093)"><g><path d="M 10.078125 -40.796875 C 8.242188 -40.585938 6.640625 -40.84375 5.265625 -41.5625 C 3.890625 -42.289062 3.164062 -43.769531 3.09375 -46 C 3.019531 -48.289062 3.613281 -49.925781 4.875 -50.90625 C 6.132812 -51.882812 7.707031 -52.484375 9.59375 -52.703125 C 11.414062 -52.910156 13.015625 -52.675781 14.390625 -52 C 15.765625 -51.320312 16.484375 -49.835938 16.546875 -47.546875 C 16.609375 -45.316406 16.015625 -43.6875 14.765625 -42.65625 C 13.515625 -41.632812 11.953125 -41.015625 10.078125 -40.796875 Z M 17.78125 -22.125 C 18.007812 -22.582031 18.445312 -22.785156 19.09375 -22.734375 C 19.738281 -22.691406 20.3125 -22.488281 20.8125 -22.125 C 21.3125 -21.769531 21.453125 -21.28125 21.234375 -20.65625 C 20.429688 -18.332031 19.65625 -16.050781 18.90625 -13.8125 C 18.15625 -11.582031 17.328125 -9.535156 16.421875 -7.671875 C 15.515625 -5.804688 14.441406 -4.273438 13.203125 -3.078125 C 11.972656 -1.890625 10.488281 -1.195312 8.75 -1 C 7.6875 -0.875 6.78125 -1.3125 6.03125 -2.3125 C 5.0625 2.832031 3.898438 7 2.546875 10.1875 C 1.191406 13.375 -0.4375 15.757812 -2.34375 17.34375 C -4.257812 18.925781 -6.566406 19.875 -9.265625 20.1875 C -13.078125 20.613281 -16.132812 20.066406 -18.4375 18.546875 C -20.738281 17.023438 -22.0625 14.75 -22.40625 11.71875 C -22.675781 9.3125 -22.519531 7.328125 -21.9375 5.765625 C -21.363281 4.210938 -20.734375 3.113281 -20.046875 2.46875 C -19.367188 1.832031 -18.976562 1.726562 -18.875 2.15625 C -18.570312 3.476562 -17.84375 4.515625 -16.6875 5.265625 C -15.53125 6.015625 -14.0625 6.289062 -12.28125 6.09375 C -10.300781 5.863281 -8.738281 5.28125 -7.59375 4.34375 C -6.457031 3.40625 -5.550781 1.957031 -4.875 0 C -4.195312 -1.957031 -3.546875 -4.570312 -2.921875 -7.84375 C -2.296875 -11.113281 -1.5 -15.175781 -0.53125 -20.03125 C 0.550781 -25.507812 1.796875 -29.75 3.203125 -32.75 C 4.617188 -35.75 6.367188 -37.367188 8.453125 -37.609375 C 9.503906 -37.734375 10.335938 -37.585938 10.953125 -37.171875 C 11.566406 -36.753906 11.941406 -35.960938 12.078125 -34.796875 C 12.242188 -33.304688 11.976562 -31.457031 11.28125 -29.25 C 10.582031 -27.039062 9.8125 -24.035156 8.96875 -20.234375 C 8.632812 -18.128906 8.765625 -16.707031 9.359375 -15.96875 C 9.953125 -15.226562 10.660156 -14.90625 11.484375 -15 C 12.679688 -15.132812 13.789062 -15.875 14.8125 -17.21875 C 15.832031 -18.5625 16.820312 -20.195312 17.78125 -22.125 Z M 17.78125 -22.125 "/></g></g></g><g fill="#000000" fill-opacity="1"><g transform="translate(176.414272, 198.518129)"><g><path d="M 8.453125 -0.96875 C 5.609375 -0.644531 3.410156 -1.394531 1.859375 -3.21875 C 0.316406 -5.050781 -0.617188 -7.414062 -0.953125 -10.3125 C -1.265625 -13.007812 -1.203125 -15.894531 -0.765625 -18.96875 C -0.335938 -22.050781 0.503906 -24.992188 1.765625 -27.796875 C 3.035156 -30.597656 4.742188 -32.960938 6.890625 -34.890625 C 9.035156 -36.828125 11.648438 -37.972656 14.734375 -38.328125 C 16.179688 -38.492188 17.320312 -38.453125 18.15625 -38.203125 C 19 -37.953125 19.648438 -37.617188 20.109375 -37.203125 C 20.578125 -36.796875 20.972656 -36.425781 21.296875 -36.09375 C 21.628906 -35.769531 22.039062 -35.632812 22.53125 -35.6875 C 22.914062 -35.726562 23.175781 -36.195312 23.3125 -37.09375 C 23.457031 -38 23.671875 -39.332031 23.953125 -41.09375 C 24.242188 -42.863281 24.753906 -45.039062 25.484375 -47.625 C 26.148438 -49.9375 26.863281 -51.710938 27.625 -52.953125 C 28.382812 -54.191406 29.148438 -55.050781 29.921875 -55.53125 C 30.703125 -56.007812 31.453125 -56.289062 32.171875 -56.375 C 33.421875 -56.519531 34.320312 -56 34.875 -54.8125 C 35.4375 -53.632812 35.347656 -51.953125 34.609375 -49.765625 L 28.828125 -27.921875 C 27.929688 -25.128906 27.71875 -23.050781 28.1875 -21.6875 C 28.664062 -20.320312 29.695312 -19.726562 31.28125 -19.90625 C 32.53125 -20.050781 33.578125 -20.5 34.421875 -21.25 C 35.273438 -22.007812 35.992188 -23.015625 36.578125 -24.265625 C 36.910156 -24.878906 37.382812 -25.140625 38 -25.046875 C 38.613281 -24.953125 39.148438 -24.6875 39.609375 -24.25 C 40.078125 -23.8125 40.21875 -23.332031 40.03125 -22.8125 C 39.363281 -21.03125 38.648438 -19.054688 37.890625 -16.890625 C 37.140625 -14.734375 36.269531 -12.644531 35.28125 -10.625 C 34.289062 -8.601562 33.09375 -6.890625 31.6875 -5.484375 C 30.289062 -4.078125 28.578125 -3.257812 26.546875 -3.03125 C 24.234375 -2.769531 22.40625 -3.582031 21.0625 -5.46875 C 19.726562 -7.363281 19.082031 -9.835938 19.125 -12.890625 L 18.84375 -12.859375 C 17.675781 -9.734375 16.207031 -7.03125 14.4375 -4.75 C 12.675781 -2.476562 10.679688 -1.21875 8.453125 -0.96875 Z M 13.328125 -16.703125 C 14.535156 -16.835938 15.554688 -17.316406 16.390625 -18.140625 C 17.234375 -18.960938 17.859375 -19.925781 18.265625 -21.03125 C 18.671875 -22.132812 18.816406 -23.191406 18.703125 -24.203125 C 18.578125 -25.253906 18.160156 -26.117188 17.453125 -26.796875 C 16.742188 -27.472656 15.691406 -27.734375 14.296875 -27.578125 C 13.140625 -27.441406 12.15625 -26.984375 11.34375 -26.203125 C 10.53125 -25.429688 9.925781 -24.5 9.53125 -23.40625 C 9.132812 -22.3125 9 -21.234375 9.125 -20.171875 C 9.238281 -19.117188 9.628906 -18.238281 10.296875 -17.53125 C 10.972656 -16.820312 11.984375 -16.546875 13.328125 -16.703125 Z M 13.328125 -16.703125 "/></g></g></g><g fill="#000000" fill-opacity="1"><g transform="translate(213.591303, 194.268597)"><g><path d="M 7.671875 -0.875 C 5.203125 -0.59375 3.226562 -1.390625 1.75 -3.265625 C 0.269531 -5.148438 -0.65625 -7.710938 -1.03125 -10.953125 C -1.257812 -12.972656 -1.25 -15.15625 -1 -17.5 C -0.757812 -19.851562 -0.273438 -22.195312 0.453125 -24.53125 C 1.191406 -26.863281 2.203125 -29.015625 3.484375 -30.984375 C 4.773438 -32.960938 6.347656 -34.609375 8.203125 -35.921875 C 10.054688 -37.242188 12.234375 -38.046875 14.734375 -38.328125 C 16.179688 -38.492188 17.316406 -38.488281 18.140625 -38.3125 C 18.972656 -38.132812 19.617188 -37.875 20.078125 -37.53125 C 20.535156 -37.195312 20.921875 -36.914062 21.234375 -36.6875 C 21.554688 -36.457031 21.960938 -36.367188 22.453125 -36.421875 C 23.273438 -36.515625 23.910156 -36.816406 24.359375 -37.328125 C 24.816406 -37.847656 25.328125 -38.375 25.890625 -38.90625 C 26.460938 -39.4375 27.300781 -39.765625 28.40625 -39.890625 C 29.375 -40.003906 30.066406 -39.84375 30.484375 -39.40625 C 30.898438 -38.96875 31.15625 -38.335938 31.25 -37.515625 C 31.40625 -36.160156 31.1875 -34.773438 30.59375 -33.359375 C 30 -31.953125 29.410156 -30.140625 28.828125 -27.921875 C 27.929688 -25.128906 27.71875 -23.050781 28.1875 -21.6875 C 28.664062 -20.320312 29.695312 -19.726562 31.28125 -19.90625 C 32.53125 -20.050781 33.578125 -20.5 34.421875 -21.25 C 35.273438 -22.007812 35.992188 -23.015625 36.578125 -24.265625 C 36.910156 -24.878906 37.382812 -25.140625 38 -25.046875 C 38.613281 -24.953125 39.148438 -24.6875 39.609375 -24.25 C 40.078125 -23.8125 40.21875 -23.332031 40.03125 -22.8125 C 39.363281 -21.03125 38.648438 -19.054688 37.890625 -16.890625 C 37.140625 -14.734375 36.269531 -12.644531 35.28125 -10.625 C 34.289062 -8.601562 33.09375 -6.890625 31.6875 -5.484375 C 30.289062 -4.078125 28.578125 -3.257812 26.546875 -3.03125 C 24.046875 -2.75 22.160156 -3.554688 20.890625 -5.453125 C 19.628906 -7.359375 19.039062 -9.835938 19.125 -12.890625 L 18.84375 -12.859375 C 17.726562 -9.742188 16.222656 -7.039062 14.328125 -4.75 C 12.441406 -2.457031 10.222656 -1.164062 7.671875 -0.875 Z M 13.1875 -16.6875 C 14.4375 -16.832031 15.492188 -17.316406 16.359375 -18.140625 C 17.222656 -18.960938 17.859375 -19.925781 18.265625 -21.03125 C 18.671875 -22.132812 18.816406 -23.191406 18.703125 -24.203125 C 18.566406 -25.398438 18.125 -26.296875 17.375 -26.890625 C 16.625 -27.492188 15.671875 -27.734375 14.515625 -27.609375 C 13.265625 -27.460938 12.21875 -27 11.375 -26.21875 C 10.539062 -25.4375 9.925781 -24.5 9.53125 -23.40625 C 9.132812 -22.3125 9 -21.234375 9.125 -20.171875 C 9.257812 -18.972656 9.691406 -18.0625 10.421875 -17.4375 C 11.148438 -16.8125 12.070312 -16.5625 13.1875 -16.6875 Z M 13.1875 -16.6875 "/></g></g></g><g fill="#000000" fill-opacity="1"><g transform="translate(250.768334, 190.019066)"><g><path d="M 4.5625 -0.515625 C 2.863281 -0.328125 1.5 -0.6875 0.46875 -1.59375 C -0.5625 -2.507812 -1.164062 -3.710938 -1.34375 -5.203125 C -1.53125 -6.890625 -1.570312 -9.019531 -1.46875 -11.59375 C -1.375 -14.175781 -1.085938 -16.984375 -0.609375 -20.015625 C -0.109375 -22.953125 0.488281 -25.71875 1.1875 -28.3125 C 1.894531 -30.914062 2.675781 -33.046875 3.53125 -34.703125 C 4.394531 -36.367188 5.285156 -37.253906 6.203125 -37.359375 C 7.171875 -37.460938 7.84375 -37.253906 8.21875 -36.734375 C 8.601562 -36.222656 8.835938 -35.601562 8.921875 -34.875 C 9.078125 -33.476562 9.507812 -32.648438 10.21875 -32.390625 C 10.9375 -32.128906 11.804688 -32.644531 12.828125 -33.9375 C 14.023438 -35.382812 15.304688 -36.550781 16.671875 -37.4375 C 18.035156 -38.332031 19.507812 -38.875 21.09375 -39.0625 C 23.320312 -39.3125 25.039062 -38.84375 26.25 -37.65625 C 27.46875 -36.476562 28.179688 -34.972656 28.390625 -33.140625 C 28.535156 -31.878906 28.472656 -30.710938 28.203125 -29.640625 C 27.929688 -28.566406 27.660156 -27.507812 27.390625 -26.46875 C 27.117188 -25.4375 27.054688 -24.316406 27.203125 -23.109375 C 27.472656 -20.691406 28.757812 -19.617188 31.0625 -19.890625 C 32.175781 -20.015625 33.066406 -20.46875 33.734375 -21.25 C 34.410156 -22.03125 35.046875 -23 35.640625 -24.15625 C 35.960938 -24.78125 36.441406 -25.039062 37.078125 -24.9375 C 37.722656 -24.84375 38.28125 -24.578125 38.75 -24.140625 C 39.226562 -23.703125 39.347656 -23.222656 39.109375 -22.703125 C 38.710938 -21.890625 38.257812 -20.707031 37.75 -19.15625 C 37.238281 -17.613281 36.609375 -15.953125 35.859375 -14.171875 C 35.109375 -12.398438 34.191406 -10.679688 33.109375 -9.015625 C 32.035156 -7.359375 30.769531 -5.957031 29.3125 -4.8125 C 27.863281 -3.664062 26.144531 -2.984375 24.15625 -2.765625 C 21.882812 -2.503906 20.203125 -3.066406 19.109375 -4.453125 C 18.023438 -5.847656 17.367188 -7.5625 17.140625 -9.59375 C 16.929688 -11.425781 16.984375 -13.203125 17.296875 -14.921875 C 17.617188 -16.640625 17.953125 -18.210938 18.296875 -19.640625 C 18.648438 -21.078125 18.773438 -22.273438 18.671875 -23.234375 C 18.578125 -24.054688 18.25 -24.65625 17.6875 -25.03125 C 17.132812 -25.40625 16.445312 -25.546875 15.625 -25.453125 C 14.226562 -25.296875 13.007812 -24.5625 11.96875 -23.25 C 10.925781 -21.9375 10.148438 -20.296875 9.640625 -18.328125 C 9.128906 -16.359375 9 -14.289062 9.25 -12.125 L 9.625 -8.875 C 9.757812 -7.664062 9.75 -6.453125 9.59375 -5.234375 C 9.4375 -4.015625 8.976562 -2.972656 8.21875 -2.109375 C 7.46875 -1.242188 6.25 -0.710938 4.5625 -0.515625 Z M 4.5625 -0.515625 "/></g></g></g><g fill="#000000" fill-opacity="1"><g transform="translate(287.015343, 185.875841)"><g/></g></g><g clip-path="url(#b6704ad95f)"><g clip-path="url(#02c456a971)"><g clip-path="url(#6836b05f22)"><g clip-path="url(#71f9fe52e9)"><path fill="#000000" d="M 114.804688 225.195312 C 104.375 226.230469 92.730469 225.558594 84.785156 217.761719 C 84.113281 217.214844 82.617188 215.652344 83.667969 215.902344 C 85.011719 216.507812 86.597656 217.90625 88.054688 218.078125 C 93.8125 219.382812 99.816406 218.699219 105.621094 218.101562 C 123.488281 215.550781 141.023438 211.074219 158.878906 208.386719 C 168.097656 207.050781 177.402344 205.21875 186.734375 205.257812 C 190.234375 206.457031 193.238281 209.136719 195.691406 211.882812 C 197.667969 214.0625 194.996094 213.949219 193.386719 214.25 C 190.089844 214.71875 186.765625 215.011719 183.453125 215.367188 C 160.414062 217.503906 137.777344 222.585938 114.804688 225.195312 Z M 114.804688 225.195312 " fill-opacity="1" fill-rule="nonzero"/></g></g></g></g><g fill="#000000" fill-opacity="1"><g transform="translate(224.316701, 212.188752)"><g><path d="M 2.578125 0.5 C 1.804688 0.582031 1.164062 0.5 0.65625 0.25 C 0.144531 0.0078125 -0.242188 -0.335938 -0.515625 -0.796875 C -0.796875 -1.265625 -0.960938 -1.753906 -1.015625 -2.265625 C -1.078125 -2.773438 -1.03125 -3.269531 -0.875 -3.75 C -0.71875 -4.238281 -0.46875 -4.648438 -0.125 -4.984375 C 0.21875 -5.328125 0.632812 -5.53125 1.125 -5.59375 C 1.3125 -5.613281 1.410156 -5.546875 1.421875 -5.390625 C 1.472656 -4.984375 1.6875 -4.671875 2.0625 -4.453125 C 2.445312 -4.234375 2.890625 -4.15625 3.390625 -4.21875 C 3.984375 -4.28125 4.578125 -4.601562 5.171875 -5.1875 C 5.773438 -5.769531 6.234375 -6.644531 6.546875 -7.8125 C 6.660156 -8.25 6.773438 -8.703125 6.890625 -9.171875 C 7.015625 -9.640625 7.128906 -10.085938 7.234375 -10.515625 C 7.316406 -10.847656 7.453125 -11.09375 7.640625 -11.25 C 7.835938 -11.414062 8.070312 -11.507812 8.34375 -11.53125 C 8.75 -11.582031 9.015625 -11.519531 9.140625 -11.34375 C 9.265625 -11.175781 9.3125 -10.929688 9.28125 -10.609375 C 9.25 -10.316406 9.171875 -9.9375 9.046875 -9.46875 C 8.929688 -9.007812 8.796875 -8.53125 8.640625 -8.03125 C 8.492188 -7.53125 8.375 -7.054688 8.28125 -6.609375 C 8.195312 -6.171875 8.171875 -5.8125 8.203125 -5.53125 C 8.234375 -5.289062 8.328125 -5.09375 8.484375 -4.9375 C 8.640625 -4.78125 8.875 -4.71875 9.1875 -4.75 C 9.601562 -4.800781 9.960938 -4.984375 10.265625 -5.296875 C 10.566406 -5.617188 10.816406 -6.023438 11.015625 -6.515625 C 11.222656 -7.003906 11.363281 -7.535156 11.4375 -8.109375 C 11.507812 -8.679688 11.515625 -9.242188 11.453125 -9.796875 C 11.390625 -10.328125 11.234375 -10.804688 10.984375 -11.234375 C 10.742188 -11.660156 10.367188 -11.984375 9.859375 -12.203125 C 9.359375 -12.429688 8.675781 -12.492188 7.8125 -12.390625 C 7.226562 -12.328125 6.675781 -12.171875 6.15625 -11.921875 C 5.644531 -11.671875 5.242188 -11.328125 4.953125 -10.890625 C 4.671875 -10.453125 4.566406 -9.910156 4.640625 -9.265625 C 4.671875 -8.992188 4.765625 -8.773438 4.921875 -8.609375 C 5.078125 -8.441406 5.253906 -8.367188 5.453125 -8.390625 C 5.585938 -8.398438 5.632812 -8.273438 5.59375 -8.015625 C 5.5625 -7.753906 5.453125 -7.453125 5.265625 -7.109375 C 5.078125 -6.773438 4.8125 -6.46875 4.46875 -6.1875 C 4.132812 -5.90625 3.742188 -5.738281 3.296875 -5.6875 C 2.796875 -5.632812 2.351562 -5.71875 1.96875 -5.9375 C 1.582031 -6.15625 1.28125 -6.457031 1.0625 -6.84375 C 0.84375 -7.238281 0.707031 -7.675781 0.65625 -8.15625 C 0.5625 -8.9375 0.648438 -9.703125 0.921875 -10.453125 C 1.203125 -11.203125 1.632812 -11.890625 2.21875 -12.515625 C 2.800781 -13.140625 3.519531 -13.65625 4.375 -14.0625 C 5.226562 -14.476562 6.1875 -14.742188 7.25 -14.859375 C 8.445312 -14.992188 9.46875 -14.953125 10.3125 -14.734375 C 11.164062 -14.515625 11.867188 -14.15625 12.421875 -13.65625 C 12.972656 -13.15625 13.398438 -12.5625 13.703125 -11.875 C 14.003906 -11.1875 14.195312 -10.445312 14.28125 -9.65625 C 14.394531 -8.65625 14.351562 -7.65625 14.15625 -6.65625 C 13.96875 -5.664062 13.660156 -4.75 13.234375 -3.90625 C 12.816406 -3.070312 12.296875 -2.382812 11.671875 -1.84375 C 11.054688 -1.300781 10.375 -0.988281 9.625 -0.90625 C 8.851562 -0.820312 8.21875 -0.984375 7.71875 -1.390625 C 7.21875 -1.804688 6.90625 -2.394531 6.78125 -3.15625 C 6.351562 -2.144531 5.78125 -1.3125 5.0625 -0.65625 C 4.351562 0 3.523438 0.382812 2.578125 0.5 Z M 2.578125 0.5 "/></g></g></g><g fill="#000000" fill-opacity="1"><g transform="translate(239.477071, 210.461446)"><g><path d="M 3.515625 -0.40625 C 2.765625 -0.3125 2.128906 -0.40625 1.609375 -0.6875 C 1.097656 -0.976562 0.695312 -1.382812 0.40625 -1.90625 C 0.113281 -2.4375 -0.0664062 -3.03125 -0.140625 -3.6875 C -0.210938 -4.351562 -0.171875 -5.03125 -0.015625 -5.71875 C 0.128906 -6.40625 0.378906 -7.050781 0.734375 -7.65625 C 1.085938 -8.257812 1.546875 -8.757812 2.109375 -9.15625 C 2.671875 -9.5625 3.332031 -9.8125 4.09375 -9.90625 C 4.675781 -9.96875 5.164062 -9.910156 5.5625 -9.734375 C 5.957031 -9.554688 6.257812 -9.296875 6.46875 -8.953125 C 6.6875 -8.617188 6.816406 -8.25 6.859375 -7.84375 C 6.910156 -7.394531 6.835938 -6.929688 6.640625 -6.453125 C 6.441406 -5.972656 6.132812 -5.5625 5.71875 -5.21875 C 5.3125 -4.882812 4.800781 -4.679688 4.1875 -4.609375 C 3.925781 -4.578125 3.671875 -4.566406 3.421875 -4.578125 C 3.171875 -4.585938 2.929688 -4.640625 2.703125 -4.734375 C 2.640625 -4.773438 2.570312 -4.773438 2.5 -4.734375 C 2.425781 -4.691406 2.398438 -4.609375 2.421875 -4.484375 C 2.453125 -4.148438 2.664062 -3.921875 3.0625 -3.796875 C 3.457031 -3.679688 3.925781 -3.65625 4.46875 -3.71875 C 5.101562 -3.789062 5.738281 -4.023438 6.375 -4.421875 C 7.019531 -4.816406 7.515625 -5.367188 7.859375 -6.078125 C 7.929688 -6.234375 8.050781 -6.296875 8.21875 -6.265625 C 8.382812 -6.242188 8.53125 -6.175781 8.65625 -6.0625 C 8.78125 -5.945312 8.8125 -5.828125 8.75 -5.703125 C 8.101562 -4.085938 7.335938 -2.828125 6.453125 -1.921875 C 5.566406 -1.023438 4.585938 -0.519531 3.515625 -0.40625 Z M 3.546875 -5.953125 C 3.910156 -5.992188 4.179688 -6.140625 4.359375 -6.390625 C 4.535156 -6.640625 4.609375 -6.882812 4.578125 -7.125 C 4.554688 -7.332031 4.46875 -7.503906 4.3125 -7.640625 C 4.15625 -7.773438 3.929688 -7.828125 3.640625 -7.796875 C 3.273438 -7.753906 3 -7.609375 2.8125 -7.359375 C 2.632812 -7.109375 2.554688 -6.859375 2.578125 -6.609375 C 2.609375 -6.421875 2.703125 -6.253906 2.859375 -6.109375 C 3.015625 -5.972656 3.242188 -5.921875 3.546875 -5.953125 Z M 3.546875 -5.953125 "/></g></g></g><g fill="#000000" fill-opacity="1"><g transform="translate(247.48562, 209.548987)"><g><path d="M 8.15625 -6.109375 C 8.21875 -6.234375 8.328125 -6.285156 8.484375 -6.265625 C 8.648438 -6.253906 8.800781 -6.203125 8.9375 -6.109375 C 9.070312 -6.015625 9.109375 -5.890625 9.046875 -5.734375 C 8.910156 -5.335938 8.722656 -4.925781 8.484375 -4.5 C 8.253906 -4.070312 7.945312 -3.695312 7.5625 -3.375 C 7.1875 -3.0625 6.691406 -2.867188 6.078125 -2.796875 C 5.765625 -2.765625 5.460938 -2.828125 5.171875 -2.984375 C 4.785156 -2.265625 4.347656 -1.648438 3.859375 -1.140625 C 3.378906 -0.628906 2.847656 -0.34375 2.265625 -0.28125 C 1.765625 -0.21875 1.335938 -0.320312 0.984375 -0.59375 C 0.640625 -0.875 0.367188 -1.253906 0.171875 -1.734375 C -0.0234375 -2.210938 -0.15625 -2.753906 -0.21875 -3.359375 C -0.28125 -3.960938 -0.269531 -4.5625 -0.1875 -5.15625 C -0.132812 -5.65625 -0.046875 -6.160156 0.078125 -6.671875 C 0.210938 -7.191406 0.363281 -7.671875 0.53125 -8.109375 C 0.707031 -8.546875 0.898438 -8.898438 1.109375 -9.171875 C 1.328125 -9.453125 1.566406 -9.609375 1.828125 -9.640625 C 2.015625 -9.660156 2.164062 -9.617188 2.28125 -9.515625 C 2.394531 -9.410156 2.46875 -9.222656 2.5 -8.953125 C 2.53125 -8.609375 2.5 -8.222656 2.40625 -7.796875 C 2.3125 -7.367188 2.21875 -6.941406 2.125 -6.515625 C 2.03125 -6.085938 2.003906 -5.6875 2.046875 -5.3125 C 2.085938 -4.957031 2.207031 -4.679688 2.40625 -4.484375 C 2.613281 -4.296875 2.90625 -4.222656 3.28125 -4.265625 C 3.675781 -4.304688 3.96875 -4.425781 4.15625 -4.625 C 4.351562 -4.832031 4.492188 -5.007812 4.578125 -5.15625 C 4.472656 -5.4375 4.382812 -5.71875 4.3125 -6 C 4.238281 -6.289062 4.1875 -6.582031 4.15625 -6.875 C 4.09375 -7.425781 4.101562 -7.929688 4.1875 -8.390625 C 4.269531 -8.859375 4.429688 -9.25 4.671875 -9.5625 C 4.921875 -9.882812 5.253906 -10.066406 5.671875 -10.109375 C 6.203125 -10.171875 6.554688 -9.992188 6.734375 -9.578125 C 6.921875 -9.160156 6.957031 -8.5625 6.84375 -7.78125 C 6.738281 -7.007812 6.488281 -6.097656 6.09375 -5.046875 C 6.28125 -4.992188 6.503906 -4.984375 6.765625 -5.015625 C 7.035156 -5.046875 7.285156 -5.144531 7.515625 -5.3125 C 7.753906 -5.488281 7.96875 -5.753906 8.15625 -6.109375 Z M 8.15625 -6.109375 "/></g></g></g><g fill="#000000" fill-opacity="1"><g transform="translate(255.792163, 208.602576)"><g><path d="M 3.515625 -0.40625 C 2.765625 -0.3125 2.128906 -0.40625 1.609375 -0.6875 C 1.097656 -0.976562 0.695312 -1.382812 0.40625 -1.90625 C 0.113281 -2.4375 -0.0664062 -3.03125 -0.140625 -3.6875 C -0.210938 -4.351562 -0.171875 -5.03125 -0.015625 -5.71875 C 0.128906 -6.40625 0.378906 -7.050781 0.734375 -7.65625 C 1.085938 -8.257812 1.546875 -8.757812 2.109375 -9.15625 C 2.671875 -9.5625 3.332031 -9.8125 4.09375 -9.90625 C 4.675781 -9.96875 5.164062 -9.910156 5.5625 -9.734375 C 5.957031 -9.554688 6.257812 -9.296875 6.46875 -8.953125 C 6.6875 -8.617188 6.816406 -8.25 6.859375 -7.84375 C 6.910156 -7.394531 6.835938 -6.929688 6.640625 -6.453125 C 6.441406 -5.972656 6.132812 -5.5625 5.71875 -5.21875 C 5.3125 -4.882812 4.800781 -4.679688 4.1875 -4.609375 C 3.925781 -4.578125 3.671875 -4.566406 3.421875 -4.578125 C 3.171875 -4.585938 2.929688 -4.640625 2.703125 -4.734375 C 2.640625 -4.773438 2.570312 -4.773438 2.5 -4.734375 C 2.425781 -4.691406 2.398438 -4.609375 2.421875 -4.484375 C 2.453125 -4.148438 2.664062 -3.921875 3.0625 -3.796875 C 3.457031 -3.679688 3.925781 -3.65625 4.46875 -3.71875 C 5.101562 -3.789062 5.738281 -4.023438 6.375 -4.421875 C 7.019531 -4.816406 7.515625 -5.367188 7.859375 -6.078125 C 7.929688 -6.234375 8.050781 -6.296875 8.21875 -6.265625 C 8.382812 -6.242188 8.53125 -6.175781 8.65625 -6.0625 C 8.78125 -5.945312 8.8125 -5.828125 8.75 -5.703125 C 8.101562 -4.085938 7.335938 -2.828125 6.453125 -1.921875 C 5.566406 -1.023438 4.585938 -0.519531 3.515625 -0.40625 Z M 3.546875 -5.953125 C 3.910156 -5.992188 4.179688 -6.140625 4.359375 -6.390625 C 4.535156 -6.640625 4.609375 -6.882812 4.578125 -7.125 C 4.554688 -7.332031 4.46875 -7.503906 4.3125 -7.640625 C 4.15625 -7.773438 3.929688 -7.828125 3.640625 -7.796875 C 3.273438 -7.753906 3 -7.609375 2.8125 -7.359375 C 2.632812 -7.109375 2.554688 -6.859375 2.578125 -6.609375 C 2.609375 -6.421875 2.703125 -6.253906 2.859375 -6.109375 C 3.015625 -5.972656 3.242188 -5.921875 3.546875 -5.953125 Z M 3.546875 -5.953125 "/></g></g></g><g fill="#000000" fill-opacity="1"><g transform="translate(263.800712, 207.690117)"><g><path d="M 1.578125 -0.1875 C 0.921875 -0.101562 0.441406 -0.234375 0.140625 -0.578125 C -0.160156 -0.921875 -0.34375 -1.363281 -0.40625 -1.90625 C -0.457031 -2.375 -0.453125 -2.890625 -0.390625 -3.453125 C -0.335938 -4.023438 -0.25 -4.59375 -0.125 -5.15625 C 0.289062 -7.039062 0.648438 -8.625 0.953125 -9.90625 C 1.253906 -11.1875 1.570312 -12.160156 1.90625 -12.828125 C 2.238281 -13.503906 2.65625 -13.867188 3.15625 -13.921875 C 3.550781 -13.960938 3.816406 -13.84375 3.953125 -13.5625 C 4.085938 -13.289062 4.039062 -12.84375 3.8125 -12.21875 C 3.414062 -11.132812 3.085938 -10.132812 2.828125 -9.21875 C 2.566406 -8.300781 2.375 -7.441406 2.25 -6.640625 C 2.1875 -6.265625 2.148438 -5.910156 2.140625 -5.578125 C 2.140625 -5.242188 2.210938 -4.976562 2.359375 -4.78125 C 2.515625 -4.59375 2.773438 -4.519531 3.140625 -4.5625 C 3.460938 -4.601562 3.734375 -4.71875 3.953125 -4.90625 C 4.179688 -5.101562 4.378906 -5.363281 4.546875 -5.6875 C 4.628906 -5.84375 4.753906 -5.910156 4.921875 -5.890625 C 5.085938 -5.867188 5.226562 -5.800781 5.34375 -5.6875 C 5.457031 -5.570312 5.488281 -5.445312 5.4375 -5.3125 C 5.332031 -5.101562 5.210938 -4.796875 5.078125 -4.390625 C 4.953125 -3.992188 4.789062 -3.566406 4.59375 -3.109375 C 4.40625 -2.660156 4.171875 -2.222656 3.890625 -1.796875 C 3.617188 -1.367188 3.289062 -1.003906 2.90625 -0.703125 C 2.53125 -0.410156 2.085938 -0.238281 1.578125 -0.1875 Z M 1.578125 -0.1875 "/></g></g></g><g fill="#000000" fill-opacity="1"><g transform="translate(268.494096, 207.155374)"><g><path d="M 8.71875 -6.171875 C 8.78125 -6.296875 8.890625 -6.347656 9.046875 -6.328125 C 9.210938 -6.316406 9.363281 -6.265625 9.5 -6.171875 C 9.632812 -6.078125 9.671875 -5.953125 9.609375 -5.796875 C 9.472656 -5.398438 9.285156 -4.988281 9.046875 -4.5625 C 8.816406 -4.132812 8.507812 -3.757812 8.125 -3.4375 C 7.75 -3.125 7.253906 -2.929688 6.640625 -2.859375 L 6.40625 -2.828125 C 6.03125 -2.148438 5.539062 -1.582031 4.9375 -1.125 C 4.332031 -0.675781 3.6875 -0.414062 3 -0.34375 C 2.164062 -0.25 1.441406 -0.445312 0.828125 -0.9375 C 0.222656 -1.4375 -0.132812 -2.175781 -0.25 -3.15625 C -0.320312 -3.84375 -0.269531 -4.5625 -0.09375 -5.3125 C 0.0703125 -6.0625 0.347656 -6.769531 0.734375 -7.4375 C 1.117188 -8.113281 1.597656 -8.671875 2.171875 -9.109375 C 2.753906 -9.554688 3.421875 -9.820312 4.171875 -9.90625 C 4.679688 -9.96875 5.15625 -9.914062 5.59375 -9.75 C 6.03125 -9.59375 6.394531 -9.289062 6.6875 -8.84375 C 6.976562 -8.40625 7.164062 -7.796875 7.25 -7.015625 C 7.332031 -6.359375 7.3125 -5.707031 7.1875 -5.0625 L 7.328125 -5.078125 C 7.597656 -5.109375 7.847656 -5.207031 8.078125 -5.375 C 8.304688 -5.550781 8.519531 -5.816406 8.71875 -6.171875 Z M 3.625 -4.3125 C 3.9375 -4.34375 4.195312 -4.460938 4.40625 -4.671875 C 4.625 -4.890625 4.785156 -5.140625 4.890625 -5.421875 C 5.003906 -5.710938 5.046875 -5.988281 5.015625 -6.25 C 4.984375 -6.53125 4.875 -6.753906 4.6875 -6.921875 C 4.5 -7.097656 4.226562 -7.164062 3.875 -7.125 C 3.570312 -7.082031 3.316406 -6.957031 3.109375 -6.75 C 2.898438 -6.550781 2.742188 -6.316406 2.640625 -6.046875 C 2.546875 -5.773438 2.515625 -5.5 2.546875 -5.21875 C 2.578125 -4.945312 2.675781 -4.71875 2.84375 -4.53125 C 3.019531 -4.34375 3.28125 -4.269531 3.625 -4.3125 Z M 3.625 -4.3125 "/></g></g></g><g fill="#000000" fill-opacity="1"><g transform="translate(277.359373, 206.145303)"><g><path d="M 8.9375 -6.1875 C 9 -6.3125 9.113281 -6.367188 9.28125 -6.359375 C 9.445312 -6.347656 9.59375 -6.289062 9.71875 -6.1875 C 9.851562 -6.09375 9.890625 -5.96875 9.828125 -5.8125 C 9.691406 -5.425781 9.503906 -5.015625 9.265625 -4.578125 C 9.035156 -4.148438 8.726562 -3.773438 8.34375 -3.453125 C 7.96875 -3.140625 7.472656 -2.953125 6.859375 -2.890625 L 6.75 -2.875 C 6.382812 -2.195312 5.929688 -1.632812 5.390625 -1.1875 C 4.859375 -0.75 4.296875 -0.492188 3.703125 -0.421875 C 3.171875 -0.359375 2.710938 -0.46875 2.328125 -0.75 C 1.953125 -1.039062 1.785156 -1.5625 1.828125 -2.3125 C 1.835938 -2.539062 1.753906 -2.648438 1.578125 -2.640625 C 1.410156 -2.628906 1.320312 -2.5 1.3125 -2.25 C 1.238281 -1.5625 1.171875 -0.863281 1.109375 -0.15625 C 1.054688 0.539062 0.972656 1.179688 0.859375 1.765625 C 0.742188 2.359375 0.582031 2.835938 0.375 3.203125 C 0.175781 3.566406 -0.0859375 3.769531 -0.421875 3.8125 C -0.867188 3.863281 -1.207031 3.789062 -1.4375 3.59375 C -1.675781 3.40625 -1.816406 3.101562 -1.859375 2.6875 C -1.921875 2.113281 -1.820312 1.34375 -1.5625 0.375 C -1.3125 -0.582031 -1.019531 -1.695312 -0.6875 -2.96875 C -0.59375 -3.300781 -0.5 -3.648438 -0.40625 -4.015625 C -0.3125 -4.390625 -0.222656 -4.769531 -0.140625 -5.15625 C 0.046875 -6.070312 0.207031 -6.820312 0.34375 -7.40625 C 0.476562 -7.988281 0.609375 -8.429688 0.734375 -8.734375 C 0.859375 -9.035156 0.992188 -9.253906 1.140625 -9.390625 C 1.285156 -9.523438 1.476562 -9.601562 1.71875 -9.625 C 2.039062 -9.664062 2.257812 -9.628906 2.375 -9.515625 C 2.488281 -9.398438 2.546875 -9.253906 2.546875 -9.078125 C 2.523438 -8.929688 2.582031 -8.847656 2.71875 -8.828125 C 2.863281 -8.804688 3.003906 -8.875 3.140625 -9.03125 C 3.421875 -9.394531 3.707031 -9.632812 4 -9.75 C 4.300781 -9.875 4.597656 -9.953125 4.890625 -9.984375 C 5.617188 -10.066406 6.234375 -9.882812 6.734375 -9.4375 C 7.242188 -8.988281 7.550781 -8.320312 7.65625 -7.4375 C 7.695312 -7.039062 7.707031 -6.644531 7.6875 -6.25 C 7.664062 -5.863281 7.617188 -5.484375 7.546875 -5.109375 C 7.816406 -5.140625 8.066406 -5.238281 8.296875 -5.40625 C 8.535156 -5.582031 8.75 -5.84375 8.9375 -6.1875 Z M 3.625 -4.3125 C 3.9375 -4.34375 4.195312 -4.460938 4.40625 -4.671875 C 4.625 -4.890625 4.785156 -5.140625 4.890625 -5.421875 C 5.003906 -5.710938 5.046875 -5.988281 5.015625 -6.25 C 4.984375 -6.53125 4.875 -6.753906 4.6875 -6.921875 C 4.5 -7.097656 4.226562 -7.164062 3.875 -7.125 C 3.570312 -7.082031 3.316406 -6.957031 3.109375 -6.75 C 2.898438 -6.550781 2.742188 -6.316406 2.640625 -6.046875 C 2.546875 -5.773438 2.515625 -5.5 2.546875 -5.21875 C 2.578125 -4.945312 2.675781 -4.71875 2.84375 -4.53125 C 3.019531 -4.34375 3.28125 -4.269531 3.625 -4.3125 Z M 3.625 -4.3125 "/></g></g></g><g fill="#000000" fill-opacity="1"><g transform="translate(286.448142, 205.109769)"><g><path d="M 3.515625 -0.40625 C 2.765625 -0.3125 2.128906 -0.40625 1.609375 -0.6875 C 1.097656 -0.976562 0.695312 -1.382812 0.40625 -1.90625 C 0.113281 -2.4375 -0.0664062 -3.03125 -0.140625 -3.6875 C -0.210938 -4.351562 -0.171875 -5.03125 -0.015625 -5.71875 C 0.128906 -6.40625 0.378906 -7.050781 0.734375 -7.65625 C 1.085938 -8.257812 1.546875 -8.757812 2.109375 -9.15625 C 2.671875 -9.5625 3.332031 -9.8125 4.09375 -9.90625 C 4.675781 -9.96875 5.164062 -9.910156 5.5625 -9.734375 C 5.957031 -9.554688 6.257812 -9.296875 6.46875 -8.953125 C 6.6875 -8.617188 6.816406 -8.25 6.859375 -7.84375 C 6.910156 -7.394531 6.835938 -6.929688 6.640625 -6.453125 C 6.441406 -5.972656 6.132812 -5.5625 5.71875 -5.21875 C 5.3125 -4.882812 4.800781 -4.679688 4.1875 -4.609375 C 3.925781 -4.578125 3.671875 -4.566406 3.421875 -4.578125 C 3.171875 -4.585938 2.929688 -4.640625 2.703125 -4.734375 C 2.640625 -4.773438 2.570312 -4.773438 2.5 -4.734375 C 2.425781 -4.691406 2.398438 -4.609375 2.421875 -4.484375 C 2.453125 -4.148438 2.664062 -3.921875 3.0625 -3.796875 C 3.457031 -3.679688 3.925781 -3.65625 4.46875 -3.71875 C 5.101562 -3.789062 5.738281 -4.023438 6.375 -4.421875 C 7.019531 -4.816406 7.515625 -5.367188 7.859375 -6.078125 C 7.929688 -6.234375 8.050781 -6.296875 8.21875 -6.265625 C 8.382812 -6.242188 8.53125 -6.175781 8.65625 -6.0625 C 8.78125 -5.945312 8.8125 -5.828125 8.75 -5.703125 C 8.101562 -4.085938 7.335938 -2.828125 6.453125 -1.921875 C 5.566406 -1.023438 4.585938 -0.519531 3.515625 -0.40625 Z M 3.546875 -5.953125 C 3.910156 -5.992188 4.179688 -6.140625 4.359375 -6.390625 C 4.535156 -6.640625 4.609375 -6.882812 4.578125 -7.125 C 4.554688 -7.332031 4.46875 -7.503906 4.3125 -7.640625 C 4.15625 -7.773438 3.929688 -7.828125 3.640625 -7.796875 C 3.273438 -7.753906 3 -7.609375 2.8125 -7.359375 C 2.632812 -7.109375 2.554688 -6.859375 2.578125 -6.609375 C 2.609375 -6.421875 2.703125 -6.253906 2.859375 -6.109375 C 3.015625 -5.972656 3.242188 -5.921875 3.546875 -5.953125 Z M 3.546875 -5.953125 "/></g></g></g><g fill="#000000" fill-opacity="1"><g transform="translate(294.456694, 204.19731)"><g><path d="M 7.21875 -6 C 7.289062 -6.15625 7.410156 -6.21875 7.578125 -6.1875 C 7.742188 -6.164062 7.882812 -6.097656 8 -5.984375 C 8.125 -5.878906 8.15625 -5.757812 8.09375 -5.625 C 7.988281 -5.414062 7.875 -5.109375 7.75 -4.703125 C 7.625 -4.304688 7.460938 -3.878906 7.265625 -3.421875 C 7.066406 -2.960938 6.828125 -2.519531 6.546875 -2.09375 C 6.273438 -1.664062 5.953125 -1.304688 5.578125 -1.015625 C 5.203125 -0.722656 4.757812 -0.546875 4.25 -0.484375 C 3.738281 -0.421875 3.320312 -0.46875 3 -0.625 C 2.6875 -0.789062 2.445312 -1.015625 2.28125 -1.296875 C 2.113281 -1.585938 2.015625 -1.890625 1.984375 -2.203125 C 1.929688 -2.640625 1.945312 -3.078125 2.03125 -3.515625 C 2.113281 -3.953125 2.21875 -4.375 2.34375 -4.78125 C 2.46875 -5.1875 2.578125 -5.554688 2.671875 -5.890625 C 2.773438 -6.234375 2.816406 -6.515625 2.796875 -6.734375 C 2.785156 -6.835938 2.691406 -6.972656 2.515625 -7.140625 C 2.347656 -7.316406 2.070312 -7.453125 1.6875 -7.546875 C 1.601562 -7.285156 1.5 -6.984375 1.375 -6.640625 C 1.257812 -6.296875 1.140625 -5.953125 1.015625 -5.609375 C 0.898438 -5.273438 0.804688 -5 0.734375 -4.78125 C 0.679688 -4.601562 0.566406 -4.53125 0.390625 -4.5625 C 0.222656 -4.59375 0.078125 -4.664062 -0.046875 -4.78125 C -0.179688 -4.90625 -0.210938 -5.03125 -0.140625 -5.15625 C -0.00390625 -5.425781 0.140625 -5.8125 0.296875 -6.3125 C 0.453125 -6.8125 0.585938 -7.28125 0.703125 -7.71875 C 0.503906 -7.757812 0.34375 -7.847656 0.21875 -7.984375 C 0.09375 -8.128906 0.0078125 -8.363281 -0.03125 -8.6875 C -0.0507812 -8.945312 -0.0078125 -9.210938 0.09375 -9.484375 C 0.195312 -9.765625 0.363281 -10.003906 0.59375 -10.203125 C 0.820312 -10.398438 1.101562 -10.519531 1.4375 -10.5625 C 2.019531 -10.625 2.59375 -10.570312 3.15625 -10.40625 C 3.726562 -10.25 4.207031 -10.019531 4.59375 -9.71875 C 4.976562 -9.414062 5.1875 -9.101562 5.21875 -8.78125 C 5.257812 -8.425781 5.234375 -8.082031 5.140625 -7.75 C 5.054688 -7.425781 4.960938 -7.097656 4.859375 -6.765625 C 4.753906 -6.429688 4.722656 -6.066406 4.765625 -5.671875 C 4.796875 -5.410156 4.910156 -5.203125 5.109375 -5.046875 C 5.304688 -4.898438 5.613281 -4.847656 6.03125 -4.890625 C 6.3125 -4.921875 6.539062 -5.035156 6.71875 -5.234375 C 6.894531 -5.441406 7.0625 -5.695312 7.21875 -6 Z M 7.21875 -6 "/></g></g></g><g fill="#000000" fill-opacity="1"><g transform="translate(301.815537, 203.358875)"><g/></g></g></svg>